<svg width="25" height="25" viewBox="0 0 25 25" fill="none" xmlns="http://www.w3.org/2000/svg">
<path d="M21.1562 20.75H23.1562V22.75H1.15625V20.75H3.15625V3.75C3.15625 3.19772 3.60397 2.75 4.15625 2.75H20.1562C20.7085 2.75 21.1562 3.19772 21.1562 3.75V20.75ZM19.1562 20.75V4.75H5.15625V20.75H19.1562ZM8.15625 11.75H11.1562V13.75H8.15625V11.75ZM8.15625 7.75H11.1562V9.75H8.15625V7.75ZM8.15625 15.75H11.1562V17.75H8.15625V15.75ZM13.1562 15.75H16.1562V17.75H13.1562V15.75ZM13.1562 11.75H16.1562V13.75H13.1562V11.75ZM13.1562 7.75H16.1562V9.75H13.1562V7.75Z" fill="#404145"/>
</svg>
