<svg width="25" height="25" viewBox="0 0 25 25" fill="none" xmlns="http://www.w3.org/2000/svg">
<path d="M12.1562 22.75C6.6334 22.75 2.15625 18.2728 2.15625 12.75C2.15625 7.22715 6.6334 2.75 12.1562 2.75C17.6791 2.75 22.1562 7.22715 22.1562 12.75C22.1562 18.2728 17.6791 22.75 12.1562 22.75ZM9.86627 20.4174C8.90368 18.3759 8.31357 16.1242 8.18356 13.75H4.21814C4.61425 16.9265 6.87264 19.5247 9.86627 20.4174ZM10.1869 13.75C10.3373 16.1888 11.034 18.4797 12.1562 20.502C13.2785 18.4797 13.9752 16.1888 14.1256 13.75H10.1869ZM20.0944 13.75H16.129C15.999 16.1242 15.4088 18.3759 14.4462 20.4174C17.4398 19.5247 19.6983 16.9265 20.0944 13.75ZM4.21814 11.75H8.18356C8.31357 9.37577 8.90368 7.12407 9.86627 5.08256C6.87264 5.97533 4.61425 8.5735 4.21814 11.75ZM10.1869 11.75H14.1256C13.9752 9.31122 13.2785 7.02025 12.1562 4.99799C11.034 7.02025 10.3373 9.31122 10.1869 11.75ZM14.4462 5.08256C15.4088 7.12407 15.999 9.37577 16.129 11.75H20.0944C19.6983 8.5735 17.4398 5.97533 14.4462 5.08256Z" fill="#404145"/>
</svg>
