<svg width="25" height="25" viewBox="0 0 25 25" fill="none" xmlns="http://www.w3.org/2000/svg">
<g clip-path="url(#clip0_1282_26704)">
<path d="M12.1562 21.6495L17.1059 16.6997C19.8396 13.9661 19.8396 9.53392 17.1059 6.80025C14.3723 4.06658 9.94017 4.06658 7.2065 6.80025C4.47283 9.53392 4.47283 13.9661 7.2065 16.6997L12.1562 21.6495ZM12.1562 24.4779L5.79229 18.114C2.27757 14.5992 2.27757 8.90076 5.79229 5.38604C9.30701 1.87132 15.0055 1.87132 18.5203 5.38604C22.035 8.90076 22.035 14.5992 18.5203 18.114L12.1562 24.4779ZM12.1562 13.75C13.2608 13.75 14.1562 12.8546 14.1562 11.75C14.1562 10.6454 13.2608 9.75 12.1562 9.75C11.0517 9.75 10.1562 10.6454 10.1562 11.75C10.1562 12.8546 11.0517 13.75 12.1562 13.75ZM12.1562 15.75C9.94711 15.75 8.15625 13.9591 8.15625 11.75C8.15625 9.54086 9.94711 7.75 12.1562 7.75C14.3653 7.75 16.1562 9.54086 16.1562 11.75C16.1562 13.9591 14.3653 15.75 12.1562 15.75Z" fill="#404145"/>
</g>
<defs>
<clipPath id="clip0_1282_26704">
<rect width="24" height="24" fill="white" transform="translate(0.15625 0.75)"/>
</clipPath>
</defs>
</svg>
