<svg width="133" height="133" viewBox="0 0 133 133" fill="none" xmlns="http://www.w3.org/2000/svg">
<circle cx="66.5" cy="66.5" r="66.5" fill="#D9D9D9"/>
<path d="M66.4997 34.7754C70.7067 34.7754 74.7414 36.4466 77.7162 39.4214C80.6911 42.3963 82.3623 46.431 82.3623 50.638C82.3623 54.8451 80.6911 58.8798 77.7162 61.8546C74.7414 64.8294 70.7067 66.5007 66.4997 66.5007C62.2926 66.5007 58.2579 64.8294 55.2831 61.8546C52.3083 58.8798 50.637 54.8451 50.637 50.638C50.637 46.431 52.3083 42.3963 55.2831 39.4214C58.2579 36.4466 62.2926 34.7754 66.4997 34.7754ZM66.4997 98.2259C66.4997 98.2259 98.2249 98.2259 98.2249 90.2946C98.2249 80.777 82.7589 70.4663 66.4997 70.4663C50.2405 70.4663 34.7744 80.777 34.7744 90.2946C34.7744 98.2259 66.4997 98.2259 66.4997 98.2259Z" fill="#CBC2C2"/>
</svg>
