<svg width="21" height="21" viewBox="0 0 21 21" fill="none" xmlns="http://www.w3.org/2000/svg">
<path d="M5.65625 4.75V1.75C5.65625 1.19772 6.10397 0.75 6.65625 0.75H14.6562C15.2085 0.75 15.6562 1.19772 15.6562 1.75V4.75H19.6562C20.2085 4.75 20.6562 5.19772 20.6562 5.75V19.75C20.6562 20.3023 20.2085 20.75 19.6562 20.75H1.65625C1.10397 20.75 0.65625 20.3023 0.65625 19.75V5.75C0.65625 5.19772 1.10397 4.75 1.65625 4.75H5.65625ZM7.65625 12.75H2.65625V18.75H18.6562V12.75H13.6562V15.75H7.65625V12.75ZM18.6562 6.75H2.65625V10.75H7.65625V8.75H13.6562V10.75H18.6562V6.75ZM9.65625 10.75V13.75H11.6562V10.75H9.65625ZM7.65625 2.75V4.75H13.6562V2.75H7.65625Z" fill="#62646A"/>
</svg>
