<svg width="25" height="24" viewBox="0 0 25 24" fill="none" xmlns="http://www.w3.org/2000/svg">
<path d="M21.75 16.42V19.9561C21.75 20.4811 21.3441 20.9167 20.8205 20.9537C20.3831 20.9846 20.0263 21 19.75 21C10.9134 21 3.75 13.8366 3.75 5C3.75 4.72371 3.76545 4.36687 3.79635 3.9295C3.83337 3.40588 4.26894 3 4.79386 3H8.3301C8.58678 3 8.80176 3.19442 8.82753 3.4498C8.85067 3.67907 8.87218 3.86314 8.89207 4.00202C9.09435 5.41472 9.50753 6.75936 10.0987 8.00303C10.1936 8.20265 10.1317 8.44159 9.95185 8.57006L7.79355 10.1118C9.10752 13.1811 11.5689 15.6425 14.6382 16.9565L16.1771 14.8019C16.3072 14.6199 16.549 14.5573 16.751 14.6532C17.9946 15.2439 19.3391 15.6566 20.7516 15.8584C20.8896 15.8782 21.0725 15.8995 21.3002 15.9225C21.5556 15.9483 21.75 16.1633 21.75 16.42Z" fill="#62646A"/>
</svg>
