<svg width="25" height="25" viewBox="0 0 25 25" fill="none" xmlns="http://www.w3.org/2000/svg">
<path d="M12.1562 14.75V16.75C8.84254 16.75 6.15625 19.4363 6.15625 22.75H4.15625C4.15625 18.3317 7.73797 14.75 12.1562 14.75ZM12.1562 13.75C8.84125 13.75 6.15625 11.065 6.15625 7.75C6.15625 4.435 8.84125 1.75 12.1562 1.75C15.4713 1.75 18.1562 4.435 18.1562 7.75C18.1562 11.065 15.4713 13.75 12.1562 13.75ZM12.1562 11.75C14.3663 11.75 16.1562 9.96 16.1562 7.75C16.1562 5.54 14.3663 3.75 12.1562 3.75C9.94625 3.75 8.15625 5.54 8.15625 7.75C8.15625 9.96 9.94625 11.75 12.1562 11.75ZM18.1562 22.25L15.2174 23.7951L15.7787 20.5225L13.401 18.2049L16.6868 17.7275L18.1562 14.75L19.6257 17.7275L22.9116 18.2049L20.5338 20.5225L21.0951 23.7951L18.1562 22.25Z" fill="#404145"/>
</svg>
