<svg width="25" height="25" viewBox="0 0 25 25" fill="none" xmlns="http://www.w3.org/2000/svg">
<path d="M7.15625 5.75V2.75C7.15625 2.19772 7.60397 1.75 8.15625 1.75H16.1562C16.7085 1.75 17.1562 2.19772 17.1562 2.75V5.75H21.1562C21.7085 5.75 22.1562 6.19772 22.1562 6.75V20.75C22.1562 21.3023 21.7085 21.75 21.1562 21.75H3.15625C2.60397 21.75 2.15625 21.3023 2.15625 20.75V6.75C2.15625 6.19772 2.60397 5.75 3.15625 5.75H7.15625ZM20.1562 13.75H4.15625V19.75H20.1562V13.75ZM20.1562 7.75H4.15625V11.75H7.15625V9.75H9.15625V11.75H15.1562V9.75H17.1562V11.75H20.1562V7.75ZM9.15625 3.75V5.75H15.1562V3.75H9.15625Z" fill="#404145"/>
</svg>
