<svg width="17" height="22" viewBox="0 0 17 22" fill="none" xmlns="http://www.w3.org/2000/svg">
<path d="M0.65625 21.75C0.65625 17.3317 4.23797 13.75 8.65625 13.75C13.0746 13.75 16.6562 17.3317 16.6562 21.75H0.65625ZM9.65625 15.833V19.75H14.3148C13.5985 17.7235 11.8247 16.1967 9.65625 15.833ZM7.65625 19.75V15.833C5.4879 16.1967 3.71391 17.7235 2.99766 19.75H7.65625ZM8.65625 12.75C5.34125 12.75 2.65625 10.065 2.65625 6.75C2.65625 3.435 5.34125 0.75 8.65625 0.75C11.9713 0.75 14.6562 3.435 14.6562 6.75C14.6562 10.065 11.9713 12.75 8.65625 12.75ZM8.65625 10.75C10.8667 10.75 12.6562 8.96043 12.6562 6.75C12.6562 4.53957 10.8667 2.75 8.65625 2.75C6.44582 2.75 4.65625 4.53957 4.65625 6.75C4.65625 8.96043 6.44582 10.75 8.65625 10.75Z" fill="#62646A"/>
</svg>
